<svg id="Layer_1" data-name="Layer 1" xmlns="http://www.w3.org/2000/svg" xmlns:xlink="http://www.w3.org/1999/xlink" viewBox="0 0 613.09 638.58"><defs><style>.cls-1{fill:url(#radial-gradient);}.cls-2{fill:#262262;}.cls-2,.cls-3,.cls-4,.cls-5{stroke:#231f20;stroke-miterlimit:10;}.cls-2,.cls-3,.cls-4{stroke-width:3px;}.cls-3,.cls-5{fill:#2e3192;}.cls-4{fill:#1f1f56;}.cls-5{stroke-width:0.5px;}</style><radialGradient id="radial-gradient" cx="306.64" cy="315.67" r="306.55" gradientUnits="userSpaceOnUse"><stop offset="0" stop-color="#130c0e" stop-opacity="0"/><stop offset="0.04" stop-color="#130c0e" stop-opacity="0.2"/><stop offset="0.19" stop-color="#130c0e" stop-opacity="0.55"/><stop offset="0.6" stop-color="#130c0e" stop-opacity="0.65"/><stop offset="1" stop-color="#130c0e" stop-opacity="0.95"/></radialGradient></defs><title>Artboard 1</title><rect class="cls-1" x="0.09" y="9.12" width="613.09" height="613.09"/><polygon class="cls-2" points="375.84 201.97 411.95 164.06 188.3 164.06 188.31 398.87 224.41 360.96 224.41 201.97 375.84 201.97"/><polygon class="cls-3" points="188.31 312.81 195.98 276.7 285.26 276.69 306.55 312.8 188.31 312.81"/><path class="cls-2" d="M412,398.87H235.32V213.43m36.11,37.91V361H375.84"/><polygon class="cls-3" points="188.3 171 224.41 201.97 224.41 360.96 188.31 398.87 188.3 171"/><polygon class="cls-4" points="271.43 360.96 235.32 398.87 411.95 398.87 376.05 360.96 271.43 360.96"/><polygon class="cls-3" points="188.31 398.87 224.41 398.87 224.41 360.96 188.31 398.87"/><path class="cls-5" d="M207.79,443.63c0,5.87,0,9.05,1,9.88.78.68,2,1,5.56,1,2.44,0,4.23,0,5.38-1.28a5.9,5.9,0,0,0,1.2-2.76c0-.41.13-.68.5-.68s.37.22.37.77a36.05,36.05,0,0,1-.69,5.29c-.28,1-.5,1.24-2.9,1.24-3.31,0-5.7-.09-7.76-.14s-3.73-.14-5.62-.14c-.5,0-1.51,0-2.62.05s-2.25.09-3.17.09c-.59,0-.92-.14-.92-.46s.18-.37.73-.37a7.09,7.09,0,0,0,1.66-.18c.92-.18,1.15-1.2,1.34-2.53.22-1.93.22-5.56.22-9.78v-8.1c0-7,0-8.28-.09-9.75s-.46-2.3-2-2.62a7,7,0,0,0-1.52-.14c-.51,0-.79-.09-.79-.41s.33-.42,1-.42c2.17,0,5.07.13,6.31.13s4.46-.13,6.25-.13c.64,0,1,.09,1,.42s-.28.41-.83.41a12.42,12.42,0,0,0-1.79.14c-1.24.23-1.61,1-1.71,2.62s-.09,2.75-.09,9.75Z"/><path class="cls-5" d="M343.25,438.85c0-7.87,5.2-18,19-18,11.46,0,18.58,6.67,18.58,17.2s-7.35,18.85-19,18.85C348.59,456.87,343.25,447,343.25,438.85Zm31.14.87c0-10.3-5.93-16.69-13.48-16.69-5.29,0-11.31,2.94-11.31,14.39,0,9.57,5.29,17.16,14.12,17.16C366.94,454.58,374.39,453,374.39,439.72Z"/><path class="cls-5" d="M231.58,435.72c0-7,0-8.28-.09-9.75s-.46-2.31-2-2.62a8.82,8.82,0,0,0-1.79-.14c-.51,0-.78-.09-.78-.41s.32-.42,1-.42c1.24,0,2.58.05,3.73.05s2.24.08,2.89.08c1.47,0,10.62,0,11.5,0a18.35,18.35,0,0,0,2-.27,4.24,4.24,0,0,1,.74-.19c.23,0,.28.19.28.42a27.49,27.49,0,0,0-.38,3c0,.45-.13,2.48-.22,3-.05.23-.14.51-.46.51s-.42-.24-.42-.65a5.24,5.24,0,0,0-.27-1.66c-.32-.82-.78-1.38-3.08-1.65-.78-.09-5.61-.19-6.54-.19-.23,0-.31.14-.31.46v11.64c0,.33,0,.5.31.5,1,0,6.31,0,7.36-.09a3.19,3.19,0,0,0,2.21-.68c.32-.38.51-.6.74-.6s.32.09.32.37-.18,1-.37,3.35c0,.92-.18,2.76-.18,3.08s0,.88-.42.88a.37.37,0,0,1-.41-.42,12.49,12.49,0,0,0-.19-1.65c-.22-.92-.87-1.61-2.57-1.8-.87-.09-5.43-.13-6.53-.13-.23,0-.27.18-.27.46v3.63c0,1.56,0,5.79,0,7.12.08,3.18.82,3.86,5.51,3.86a11.74,11.74,0,0,0,4.33-.55c1.19-.55,1.75-1.52,2.07-3.4.09-.5.18-.69.5-.69s.37.37.37.83a36,36,0,0,1-.6,5.1c-.32,1.2-.74,1.2-2.48,1.2-3.45,0-6-.09-8-.14s-3.4-.14-4.78-.14c-.5,0-1.52,0-2.62.05s-2.25.09-3.17.09c-.6,0-.92-.14-.92-.46s.18-.37.73-.37a7.68,7.68,0,0,0,1.66-.18c.92-.18,1.14-1.2,1.33-2.53.23-1.93.23-5.56.23-9.79Z"/><path class="cls-5" d="M422.66,453.28c0,1.25,0,1.34-.66,1.68-3.32,1.58-8.34,2.09-12.32,2.09-12.52,0-23.6-5.39-23.6-18.2a17.05,17.05,0,0,1,8.89-15.2c4.9-2.69,9.45-3,13.74-3a69.57,69.57,0,0,1,9,.72,33.87,33.87,0,0,0,4.05.53c.62,0,.72.24.72.54a57,57,0,0,0-.36,7.62c0,.73-.16,1-.58,1s-.45-.24-.52-.59a6.16,6.16,0,0,0-1.72-3.85C417.8,425.1,413.73,423,408,423c-2.82,0-6.56.2-10.14,2.89-2.84,2.18-4.68,5.65-4.68,11.37,0,10,7,17.46,17.8,17.46a12.1,12.1,0,0,0,4.32-.52,1.63,1.63,0,0,0,1-1.72v-4.36c0-2.32,0-4.09-.05-5.47,0-1.58-.53-2.33-2.2-2.65a9.86,9.86,0,0,0-2-.15c-.48,0-.79-.09-.79-.37s.37-.46,1.09-.46c2.64,0,5.87.13,7.41.13s4.29-.13,6-.13c.66,0,1,.09,1,.46s-.3.37-.67.37a7.32,7.32,0,0,0-1.38.15c-1.37.23-1.88,1-1.95,2.65,0,1.38,0,3.23,0,5.58Z"/><path class="cls-5" d="M174.81,435.78c0-7,0-8.28-.09-9.75s-.46-2.31-2-2.62a8.72,8.72,0,0,0-1.79-.15c-.51,0-.78-.08-.78-.4s.32-.42,1-.42c1.24,0,2.57.05,3.73.05s2.24.08,2.89.08c1.47,0,10.62,0,11.49,0a18.25,18.25,0,0,0,2-.27,4.24,4.24,0,0,1,.74-.19c.23,0,.28.19.28.42a27.49,27.49,0,0,0-.38,3c0,.45-.13,2.48-.23,3,0,.23-.13.51-.45.51s-.42-.24-.42-.65a5,5,0,0,0-.28-1.66c-.32-.82-.78-1.38-3.07-1.65-.78-.09-5.61-.19-6.54-.19-.23,0-.32.14-.32.46V437c0,.33.05.5.32.5,1,0,6.31,0,7.36-.09a3.23,3.23,0,0,0,2.21-.68c.32-.38.5-.6.74-.6s.32.09.32.37-.19,1-.37,3.35c-.05.92-.19,2.76-.19,3.08s0,.88-.41.88a.37.37,0,0,1-.41-.42,12.49,12.49,0,0,0-.19-1.65c-.23-.92-.87-1.62-2.57-1.8-.88-.09-5.43-.13-6.53-.13-.23,0-.28.18-.28.46v3.63c0,1.56,0,5.79,0,7.12.09,3.18,0-.34,0,2.62,0,1.2,0,1.62,1.18,1.08s-.24-.16.08-2c.09-.5-.27-1.4,0-1.4s1.42-.09,1.66.31a9.09,9.09,0,0,1,.83,4.5c-.32,1.2-.44,1.16-2.19,1.16a26.06,26.06,0,0,1-3.27-.16,6.32,6.32,0,0,0-1.38,0c-.51,0-1.52,0-2.62.05s-2.25.09-3.17.09c-.6,0-.92-.14-.92-.46s.18-.37.73-.37a7.68,7.68,0,0,0,1.66-.18c.91-.18,1.14-1.2,1.33-2.53.23-1.93.23-5.56.23-9.79Z"/><path class="cls-5" d="M297.34,422.37l7.93-.1c2,0,4,.3,5.31,2.52a10.61,10.61,0,0,1,1.26,5.48,11.69,11.69,0,0,1-1.24,5.84c-.81,1.34-2.13,2.34-4.69,2.33h-2.57c-2.69,0-3.18,0-3.75.05s-.89.26-1,1.13a7,7,0,0,0-.06,1c0,.29,0,.45-.15.45s-.16-.18-.16-.58c0-1.39.06-3.05.06-3.85,0-.63,0-2.29,0-3.23,0-.4,0-.58.16-.58s.16.16.15.42a5.06,5.06,0,0,0,.06.76c.08.72.38.93,1,1s1.06.06,3.75.06h0c2.56,0,3.87-.77,4.58-2.06s.45-3.16.46-4.05c0-1.16-.48-1.58-1.18-2.64-1-1.45-2-1.75-3.83-1.76h0c-2.69,0-3.18,0-3.75.05s-.89.26-1,1.13a6.55,6.55,0,0,0-.06.94c0,.29,0,.45-.16.45s-.15-.18-.15-.55c0-1.34.06-3,.06-3"/><path class="cls-5" d="M296.35,455c0-.74-.1-2.71-.11-3.83,0-.47,0-.69.21-.69s.23.19.23.5a5.83,5.83,0,0,0,.09.9c.13.84.56,1.09,1.43,1.14s1.5.05,5.29,0h.43c3.62,0,3.29-.81,4.27-2.35a7.59,7.59,0,0,0,1-4.2c0-1.37,0-3-1.37-4.06-1.77-1.37-1.87-1.86-4.44-1.83h0c-3.8.05-4.5.05-5.29.13s-1.25.32-1.41,1.35a7.55,7.55,0,0,0-.07,1.12c0,.35,0,.53-.21.54s-.23-.22-.23-.66c0-1.58,0-3.55,0-3.58,0-.37-.1-2.34-.11-3.55,0-.44,0-.66.21-.66s.23.18.23.56a5.83,5.83,0,0,0,.09.9c.13.84.56,1.09,1.43,1.14s1.5,0,5.3,0l2.66,0c2.77,0,5.72.28,7.55,2.88a10.9,10.9,0,0,1,1.86,6.46c0,1.66,0,4.65-1.64,6.95-1.13,1.6-3,2.8-6.58,2.84l-3.64,0c-3.8.05-4.39-.34-5.19-.27a29.1,29.1,0,0,1-3.32.11"/><path class="cls-5" d="M270.63,433.9c4.52-5.79,5.35-6.85,6.22-8.12s1-2.28.26-3.07a6.91,6.91,0,0,0-1.36-1.14c-.41-.27-.6-.51-.36-.82s.56-.08,1.22.36c1.56,1,4.08,2.88,5.28,3.67,1,.69,3.54,2.2,5.11,3.24.53.36.81.65.63.88s-.55.21-1-.06a8.57,8.57,0,0,0-1.33-.71c-1.26-.55-2.09-.11-3.22,1.16s-1.86,2.22-6.38,8l-5.22,6.7c-2.88,3.68-5.23,6.69-6.33,8.43-.69,1.12-.94,2,.18,3a21,21,0,0,0,2,1.54c.45.31.57.56.42.75s-.62.16-1.08-.14c-2.72-1.81-5.23-3.65-6.34-4.39-.95-.63-3.64-2.25-5.29-3.34-.52-.36-.73-.67-.52-.93s.4-.2.9.13a8.37,8.37,0,0,0,1.6.84c.94.4,1.69-.09,2.68-1.11,1.45-1.46,3.8-4.47,6.67-8.15Z"/><path class="cls-5" d="M265.57,437.45c-4.12-6.5-3.66-6-5.53-8.53-1-1.33-1.84-1.78-2.93-1.46a7.17,7.17,0,0,0-1.68.69c-.44.23-.75.3-1,0s.14-.51.84-.89c1.67-.9,4.5-2.28,5.78-3,1.09-.59,3.6-2.11,5.27-3,.57-.31,1-.42,1.13-.17s0,.54-.45.78a9.57,9.57,0,0,0-1.24.83c-1.05.84-1,1.73-.15,3.19s1.45,2.47,5.36,8.63l4.52,7.13c2.49,3.92,4.52,7.12,5.8,8.75.83,1,1.59,1.59,3,1a20.08,20.08,0,0,0,2.33-1.05c.49-.26.79-.25.92-.05s-.1.59-.58.85c-2.9,1.57-5.73,2.94-6.92,3.59-1,.54-3.69,2.16-5.44,3.11-.56.3-.95.35-1.13.07s0-.43.49-.71a9,9,0,0,0,1.48-1c.77-.64.6-1.47,0-2.72-.86-1.81-2.9-5-5.38-8.93Z"/><path class="cls-5" d="M293.11,435.59c0-7,0-8.28-.09-9.75s-.55-2.35-1.56-2.58a6.48,6.48,0,0,0-1.65-.19c-.46,0-.74-.08-.74-.45s.37-.37,1.1-.37c1.75,0,4.65.13,6,.13,1.15,0,4.48-.07,6.23-.07.6,0,.35,0,.35.31s-.28.45-.74.45a7.16,7.16,0,0,0-1.38.15c-1.24.22-1.61,1-1.7,2.62s-.09,2.75-.09,9.75v8.09c0,4.46,0,8.09.18,10.06.14,1.25.46,2.08,1.84,2.26a19.8,19.8,0,0,0,2.34.18c.51,0,.74.14.74.37s-.36.46-.87.46c-3,0-5.93-.14-7.18-.14-1.05,0-3.95.14-5.79.14-.59,0-.92-.14-.92-.46s.19-.37.74-.37a7.83,7.83,0,0,0,1.66-.18c.91-.18,1.19-1,1.33-2.3.22-1.93.22-5.56.22-10Z"/><path class="cls-5" d="M329.25,443.2c0,5.71,0,8.8,1,9.61.78.67,2,1,5.56,1,2.44,0,4.22,0,5.38-1.25a5.65,5.65,0,0,0,1.2-2.69c0-.39.13-.66.5-.66s.37.21.37.76a34.15,34.15,0,0,1-.69,5.14c-.28,1-.5,1.2-2.9,1.2-3.31,0-5.7-.08-7.77-.13s-3.72-.14-5.61-.14c-.51,0-1.51,0-2.62.05s-2.25.09-3.17.09c-.6,0-.92-.14-.92-.45s.18-.36.73-.36a7.77,7.77,0,0,0,1.66-.17c.92-.18,1.15-1.17,1.34-2.47.22-1.87.22-5.4.22-9.51v-7.87c0-6.8,0-8.05-.09-9.48s-.46-2.24-2-2.55a6.85,6.85,0,0,0-1.51-.14c-.51,0-.79-.08-.79-.39s.33-.41,1-.41c2.17,0,5.07.13,6.31.13s4.46-.13,6.25-.13c.64,0,1,.09,1,.41s-.28.39-.83.39a12.66,12.66,0,0,0-1.8.14c-1.24.22-1.61,1-1.7,2.55s-.09,2.68-.09,9.48Z"/></svg>